<mxfile host="app.diagrams.net" modified="2023-03-01T08:05:28.508Z" agent="5.0 (Macintosh; Intel Mac OS X 10_15_7) AppleWebKit/605.1.15 (KHTML, like Gecko) Version/16.2 Safari/605.1.15" etag="OXCGp4Yz7o4XKux81kPN" version="20.8.23" type="github">
  <diagram id="1HvbYhtdSqmgL1F3OeFL" name="第 1 页">
    <mxGraphModel dx="1853" dy="638" grid="1" gridSize="10" guides="1" tooltips="1" connect="1" arrows="1" fold="1" page="1" pageScale="1" pageWidth="827" pageHeight="1169" math="0" shadow="0">
      <root>
        <mxCell id="0" />
        <mxCell id="1" parent="0" />
        <mxCell id="OBHNnXGTpU4VKu28_vaq-1" value="&lt;p style=&quot;margin: 0pt 0pt 0.0001pt; text-align: justify; font-family: Calibri; font-size: 10.5pt;&quot; class=&quot;MsoNormal&quot;&gt;&lt;br&gt;&lt;/p&gt;&lt;p style=&quot;margin: 0pt 0pt 0.0001pt; text-align: justify; font-family: Calibri; font-size: 10.5pt;&quot; class=&quot;MsoNormal&quot;&gt;&lt;br&gt;&lt;/p&gt;&lt;p style=&quot;margin: 0pt 0pt 0.0001pt; text-align: justify; font-family: Calibri; font-size: 10.5pt;&quot; class=&quot;MsoNormal&quot;&gt;&lt;br&gt;&lt;/p&gt;&lt;p style=&quot;margin: 0pt 0pt 0.0001pt; text-align: justify; font-family: Calibri; font-size: 10.5pt;&quot; class=&quot;MsoNormal&quot;&gt;&lt;br&gt;&lt;/p&gt;&lt;p style=&quot;margin: 0pt 0pt 0.0001pt; text-align: justify; font-family: Calibri; font-size: 10.5pt;&quot; class=&quot;MsoNormal&quot;&gt;&lt;br&gt;&lt;/p&gt;&lt;p style=&quot;margin: 0pt 0pt 0.0001pt; text-align: justify; font-family: Calibri; font-size: 10.5pt;&quot; class=&quot;MsoNormal&quot;&gt;&lt;br&gt;&lt;/p&gt;&lt;p style=&quot;margin: 0pt 0pt 0.0001pt; text-align: justify; font-family: Calibri; font-size: 10.5pt;&quot; class=&quot;MsoNormal&quot;&gt;&lt;font face=&quot;仿宋_GB2312&quot;&gt;西安大&lt;/font&gt;&lt;font face=&quot;仿宋_GB2312&quot;&gt;IDC&lt;/font&gt;&lt;/p&gt;" style="rounded=0;whiteSpace=wrap;html=1;" vertex="1" parent="1">
          <mxGeometry x="-30" y="200" width="120" height="130" as="geometry" />
        </mxCell>
        <mxCell id="OBHNnXGTpU4VKu28_vaq-2" value="&lt;p style=&quot;margin: 0pt 0pt 0.0001pt; text-align: justify; font-family: Calibri; font-size: 10.5pt;&quot; class=&quot;MsoNormal&quot;&gt;&lt;br&gt;&lt;/p&gt;&lt;p style=&quot;margin: 0pt 0pt 0.0001pt; text-align: justify; font-family: Calibri; font-size: 10.5pt;&quot; class=&quot;MsoNormal&quot;&gt;&lt;br&gt;&lt;/p&gt;&lt;p style=&quot;margin: 0pt 0pt 0.0001pt; text-align: justify; font-family: Calibri; font-size: 10.5pt;&quot; class=&quot;MsoNormal&quot;&gt;&lt;br&gt;&lt;/p&gt;&lt;p style=&quot;margin: 0pt 0pt 0.0001pt; text-align: justify; font-family: Calibri; font-size: 10.5pt;&quot; class=&quot;MsoNormal&quot;&gt;&lt;br&gt;&lt;/p&gt;&lt;p style=&quot;margin: 0pt 0pt 0.0001pt; text-align: justify; font-family: Calibri; font-size: 10.5pt;&quot; class=&quot;MsoNormal&quot;&gt;&lt;br&gt;&lt;/p&gt;&lt;p style=&quot;margin: 0pt 0pt 0.0001pt; text-align: justify; font-family: Calibri; font-size: 10.5pt;&quot; class=&quot;MsoNormal&quot;&gt;&lt;br&gt;&lt;/p&gt;&lt;p style=&quot;margin: 0pt 0pt 0.0001pt; text-align: justify; font-family: Calibri; font-size: 10.5pt;&quot; class=&quot;MsoNormal&quot;&gt;&lt;font face=&quot;仿宋_GB2312&quot;&gt;扬州灾备机房&lt;/font&gt;&lt;/p&gt;" style="rounded=0;whiteSpace=wrap;html=1;" vertex="1" parent="1">
          <mxGeometry x="270" y="200" width="120" height="130" as="geometry" />
        </mxCell>
        <mxCell id="OBHNnXGTpU4VKu28_vaq-3" value="&lt;p style=&quot;margin: 0pt 0pt 0.0001pt; text-align: justify; font-family: Calibri; font-size: 10.5pt;&quot; class=&quot;MsoNormal&quot;&gt;&lt;br&gt;&lt;/p&gt;&lt;p style=&quot;margin: 0pt 0pt 0.0001pt; text-align: justify; font-family: Calibri; font-size: 10.5pt;&quot; class=&quot;MsoNormal&quot;&gt;&lt;font face=&quot;仿宋_GB2312&quot;&gt;&lt;br&gt;&lt;/font&gt;&lt;/p&gt;&lt;p style=&quot;margin: 0pt 0pt 0.0001pt; text-align: justify; font-family: Calibri; font-size: 10.5pt;&quot; class=&quot;MsoNormal&quot;&gt;&lt;font face=&quot;仿宋_GB2312&quot;&gt;&lt;br&gt;&lt;/font&gt;&lt;/p&gt;&lt;p style=&quot;margin: 0pt 0pt 0.0001pt; text-align: justify; font-family: Calibri; font-size: 10.5pt;&quot; class=&quot;MsoNormal&quot;&gt;&lt;font face=&quot;仿宋_GB2312&quot;&gt;&lt;br&gt;&lt;/font&gt;&lt;/p&gt;&lt;p style=&quot;margin: 0pt 0pt 0.0001pt; text-align: justify; font-family: Calibri; font-size: 10.5pt;&quot; class=&quot;MsoNormal&quot;&gt;&lt;font face=&quot;仿宋_GB2312&quot;&gt;&lt;br&gt;&lt;/font&gt;&lt;/p&gt;&lt;p style=&quot;margin: 0pt 0pt 0.0001pt; text-align: justify; font-family: Calibri; font-size: 10.5pt;&quot; class=&quot;MsoNormal&quot;&gt;&lt;font face=&quot;仿宋_GB2312&quot;&gt;&lt;br&gt;&lt;/font&gt;&lt;/p&gt;&lt;p style=&quot;margin: 0pt 0pt 0.0001pt; text-align: justify; font-family: Calibri; font-size: 10.5pt;&quot; class=&quot;MsoNormal&quot;&gt;&lt;font style=&quot;font-size: 10.5pt;&quot; face=&quot;仿宋_GB2312&quot;&gt;西安呼叫中心&lt;/font&gt;&lt;font style=&quot;font-size: 10.5pt;&quot; face=&quot;仿宋_GB2312&quot;&gt;IDC&lt;/font&gt;&lt;br&gt;&lt;/p&gt;" style="rounded=0;whiteSpace=wrap;html=1;" vertex="1" parent="1">
          <mxGeometry x="120" y="200" width="120" height="130" as="geometry" />
        </mxCell>
        <mxCell id="OBHNnXGTpU4VKu28_vaq-4" value="&lt;p style=&quot;margin: 0pt 0pt 0.0001pt; text-align: justify; font-family: Calibri; font-size: 10.5pt;&quot; class=&quot;MsoNormal&quot;&gt;&lt;span style=&quot;font-family: 仿宋_GB2312; font-size: 10.5pt;&quot;&gt;&lt;br&gt;&lt;/span&gt;&lt;/p&gt;&lt;p style=&quot;margin: 0pt 0pt 0.0001pt; text-align: justify; font-family: Calibri; font-size: 10.5pt;&quot; class=&quot;MsoNormal&quot;&gt;&lt;span style=&quot;font-family: 仿宋_GB2312; font-size: 10.5pt;&quot;&gt;&lt;br&gt;&lt;/span&gt;&lt;/p&gt;&lt;p style=&quot;margin: 0pt 0pt 0.0001pt; text-align: justify; font-family: Calibri; font-size: 10.5pt;&quot; class=&quot;MsoNormal&quot;&gt;&lt;span style=&quot;font-family: 仿宋_GB2312; font-size: 10.5pt;&quot;&gt;&lt;br&gt;&lt;/span&gt;&lt;/p&gt;&lt;p style=&quot;margin: 0pt 0pt 0.0001pt; text-align: justify; font-family: Calibri; font-size: 10.5pt;&quot; class=&quot;MsoNormal&quot;&gt;&lt;span style=&quot;font-family: 仿宋_GB2312; font-size: 10.5pt;&quot;&gt;&lt;br&gt;&lt;/span&gt;&lt;/p&gt;&lt;p style=&quot;margin: 0pt 0pt 0.0001pt; text-align: justify; font-family: Calibri; font-size: 10.5pt;&quot; class=&quot;MsoNormal&quot;&gt;&lt;span style=&quot;font-family: 仿宋_GB2312; font-size: 10.5pt;&quot;&gt;&lt;br&gt;&lt;/span&gt;&lt;/p&gt;&lt;p style=&quot;margin: 0pt 0pt 0.0001pt; text-align: justify; font-family: Calibri; font-size: 10.5pt;&quot; class=&quot;MsoNormal&quot;&gt;&lt;span style=&quot;font-family: 仿宋_GB2312; font-size: 10.5pt;&quot;&gt;&lt;br&gt;&lt;/span&gt;&lt;/p&gt;&lt;p style=&quot;margin: 0pt 0pt 0.0001pt; text-align: justify; font-family: Calibri; font-size: 10.5pt;&quot; class=&quot;MsoNormal&quot;&gt;&lt;span style=&quot;font-family: 仿宋_GB2312; font-size: 10.5pt;&quot;&gt;xx云&lt;/span&gt;&lt;br&gt;&lt;/p&gt;" style="rounded=0;whiteSpace=wrap;html=1;" vertex="1" parent="1">
          <mxGeometry x="420" y="200" width="120" height="130" as="geometry" />
        </mxCell>
        <mxCell id="OBHNnXGTpU4VKu28_vaq-5" value="&lt;p style=&quot;margin: 0pt 0pt 0.0001pt; text-align: justify; font-family: Calibri; font-size: 10.5pt;&quot; class=&quot;MsoNormal&quot;&gt;&lt;br&gt;&lt;/p&gt;&lt;p style=&quot;margin: 0pt 0pt 0.0001pt; text-align: justify; font-family: Calibri; font-size: 10.5pt;&quot; class=&quot;MsoNormal&quot;&gt;&lt;br&gt;&lt;/p&gt;&lt;p style=&quot;margin: 0pt 0pt 0.0001pt; text-align: justify; font-family: Calibri; font-size: 10.5pt;&quot; class=&quot;MsoNormal&quot;&gt;&lt;br&gt;&lt;/p&gt;&lt;p style=&quot;margin: 0pt 0pt 0.0001pt; text-align: justify; font-family: Calibri; font-size: 10.5pt;&quot; class=&quot;MsoNormal&quot;&gt;&lt;br&gt;&lt;/p&gt;&lt;p style=&quot;margin: 0pt 0pt 0.0001pt; text-align: justify; font-family: Calibri; font-size: 10.5pt;&quot; class=&quot;MsoNormal&quot;&gt;&lt;br&gt;&lt;/p&gt;&lt;p style=&quot;margin: 0pt 0pt 0.0001pt; text-align: justify; font-family: Calibri; font-size: 10.5pt;&quot; class=&quot;MsoNormal&quot;&gt;&lt;br&gt;&lt;/p&gt;&lt;p style=&quot;margin: 0pt 0pt 0.0001pt; text-align: justify; font-family: Calibri; font-size: 10.5pt;&quot; class=&quot;MsoNormal&quot;&gt;&lt;font face=&quot;仿宋_GB2312&quot;&gt;华为云金融专区&lt;/font&gt;&lt;/p&gt;" style="rounded=0;whiteSpace=wrap;html=1;" vertex="1" parent="1">
          <mxGeometry x="570" y="200" width="120" height="130" as="geometry" />
        </mxCell>
        <mxCell id="OBHNnXGTpU4VKu28_vaq-6" value="非车险核心" style="rounded=1;whiteSpace=wrap;html=1;" vertex="1" parent="1">
          <mxGeometry x="-20" y="240" width="100" height="40" as="geometry" />
        </mxCell>
        <mxCell id="OBHNnXGTpU4VKu28_vaq-7" value="呼叫中心" style="rounded=1;whiteSpace=wrap;html=1;" vertex="1" parent="1">
          <mxGeometry x="130" y="240" width="100" height="40" as="geometry" />
        </mxCell>
        <mxCell id="OBHNnXGTpU4VKu28_vaq-8" value="呼叫中心灾备环境" style="rounded=1;whiteSpace=wrap;html=1;" vertex="1" parent="1">
          <mxGeometry x="280" y="210" width="100" height="40" as="geometry" />
        </mxCell>
        <mxCell id="OBHNnXGTpU4VKu28_vaq-9" value="西安IDC灾备环境" style="rounded=1;whiteSpace=wrap;html=1;" vertex="1" parent="1">
          <mxGeometry x="280" y="260" width="100" height="40" as="geometry" />
        </mxCell>
        <mxCell id="OBHNnXGTpU4VKu28_vaq-10" value="&lt;p style=&quot;border-color: var(--border-color); margin: 0pt 0pt 0.0001pt; text-align: justify; font-family: Calibri; font-size: 10.5pt;&quot; class=&quot;MsoNormal&quot;&gt;&lt;font style=&quot;border-color: var(--border-color);&quot; face=&quot;仿宋_GB2312&quot;&gt;车险核心&lt;/font&gt;&lt;/p&gt;" style="rounded=1;whiteSpace=wrap;html=1;" vertex="1" parent="1">
          <mxGeometry x="430" y="240" width="100" height="40" as="geometry" />
        </mxCell>
        <mxCell id="OBHNnXGTpU4VKu28_vaq-11" value="&lt;p style=&quot;border-color: var(--border-color); margin: 0pt 0pt 0.0001pt; text-align: justify; font-family: Calibri; font-size: 10.5pt;&quot; class=&quot;MsoNormal&quot;&gt;意健险&lt;br&gt;&lt;/p&gt;" style="rounded=1;whiteSpace=wrap;html=1;" vertex="1" parent="1">
          <mxGeometry x="580" y="240" width="100" height="40" as="geometry" />
        </mxCell>
      </root>
    </mxGraphModel>
  </diagram>
</mxfile>
